<svg xmlns="http://www.w3.org/2000/svg" width="250" height="90" viewBox="0 0 250 90"><path fill="#FFF" d="M169.225 25.53v22.314c0 5.294 1.303 9.04 7.412 9.04 6.107 0 7.41-3.746 7.41-9.04V25.53h14.823v25.167c0 13.764-9.69 17.998-22.233 17.998-12.545 0-22.236-4.234-22.236-17.998V25.53h14.825zM104.55 24.146c-5.782 0-9.936 1.71-13.356 6.76h-.164V25.53H76.207v3.954c4.955 3.8 8.145 9.547 8.145 16.977 0 7.39-3.19 13.116-8.145 16.907v3.943H91.03V45.646c0-5.212 1.71-9.69 7.737-9.69 7.33 0 6.68 7.003 6.68 10.994v20.36h14.822V41.493c0-10.262-4.48-17.347-15.72-17.347"/><path fill="#00B49D" d="M49.655 46.46c0 5.296 3.502 9.367 9.53 9.367 6.025 0 9.527-4.07 9.527-9.366 0-5.13-3.502-9.447-9.528-9.447-6.027 0-9.53 4.317-9.53 9.448"/><path fill="#FFF" d="M207.206 25.53h14.823v41.78h-14.824zM240.723 32.23c0 4.56-3.746 8.307-8.308 8.307s-8.308-3.747-8.308-8.307c0-4.562 3.746-8.308 8.308-8.308s8.308 3.747 8.308 8.308M137.5 21.938c-4.533 0-8.408-3.118-8.408-7.936 0-4.913 3.875-8.03 8.408-8.03 4.535 0 8.408 3.117 8.408 8.03 0 4.818-3.873 7.936-8.408 7.936m7.37 45.158c0 10.676-5.574 16.912-16.156 16.912-2.173 0-4.062-.19-5.384-.662V72.198c.566.095 1.322.188 2.172.188 3.023 0 4.535-1.228 4.535-4.724V25.527h14.832v41.57zM36.386 56.574c-.382.043-.763.066-1.138.066-6.108 0-10.425-4.234-10.425-10.263 0-5.782 4.48-10.18 10.18-10.18.47 0 .93.038 1.386.104 1.93-3.71 4.933-6.626 8.595-8.67-4.544-2.773-8.78-3.487-12.098-3.487-13.113 0-23.375 9.284-23.375 22.724 0 12.623 10.344 21.825 22.723 21.825 3.454 0 9.07-.967 12.408-3.672-3.505-2.022-6.384-4.86-8.257-8.446"/></svg>