<?xml version="1.0" encoding="utf-8"?>
<!-- Generator: Adobe Illustrator 22.1.0, SVG Export Plug-In . SVG Version: 6.00 Build 0)  -->
<svg version="1.1" id="Layer_1" xmlns="http://www.w3.org/2000/svg" xmlns:xlink="http://www.w3.org/1999/xlink" x="0px" y="0px"
	 viewBox="0 0 120.4 105.2" style="enable-background:new 0 0 120.4 105.2;" xml:space="preserve">
<style type="text/css">
	.st0{fill:#FFFFFF;}
</style>
<title>conjur_vert_1c_ko</title>
<g>
	<g>
		<g>
			<g>
				<g>
					<path class="st0" d="M12.2,79.3c-1.4,1.4-3.2,2-5.1,2c-4.9,0-7.1-3.4-7.1-6.9c0-3.5,2.3-7.1,7.1-7.1c1.8,0,3.6,0.7,4.9,2
						l-1.4,1.4c-1-0.9-2.2-1.4-3.5-1.4c-3.4,0-5,2.5-5,5c0,2.5,1.5,4.9,5,4.9c1.2,0,2.6-0.5,3.6-1.5L12.2,79.3z"/>
					<path class="st0" d="M20.1,73.5l3.8-5.9h2.6v0.1l-5.3,7.8V81H19v-5.5l-5.2-7.8v-0.1h2.6L20.1,73.5z"/>
					<path class="st0" d="M35.5,67.6c2.6,0,4.6,1.2,4.6,3.8c0,1.1-0.6,2.2-1.9,2.7c1.6,0.5,2.3,2.1,2.3,3.1c0,2.9-2.3,3.8-5,3.8
						c-2.1,0-4.1,0-6.2,0V67.6H35.5z M31.5,73.2h4.1c1.6,0,2.4-0.6,2.4-1.7c0-0.9-0.8-1.9-2.4-1.9h-4V73.2z M31.5,79h4
						c1.2,0,2.8-0.4,2.8-1.9c0-1.4-1.6-2.1-2.8-2.1c-1.4,0-2.7,0-4.1,0V79z"/>
					<path class="st0" d="M54,81h-9.9c0-4.5,0-9,0-13.4h9.9v2.1h-7.7v3.6h7.4v2h-7.4v3.6H54V81z"/>
					<path class="st0" d="M69.3,81h-2.5l-4.1-4.6h-2.8V81h-2.2V67.6c2.1,0,4.2,0,6.3,0c3.1,0,4.7,2.1,4.7,4.4c0,1.9-1,3.8-3.7,4.2
						l4,4.5L69.3,81z M59.9,69.6v4.9H64c1.8,0,2.6-1.1,2.6-2.4c0-1.2-0.8-2.5-2.6-2.5H59.9z"/>
					<path class="st0" d="M81.5,78.8h-6L74.6,81h-4l6-13.4h3.8l6,13.4h-4.1L81.5,78.8z M78.5,71.4l-1.7,4.3h3.4L78.5,71.4z"/>
					<path class="st0" d="M100.9,81h-4.2l-3.1-4.4h-1.3V81h-3.8V67.6h6.6c3.4,0,5.2,2.2,5.2,4.6c0,1.7-0.6,3.1-2.8,4.1l3.5,4.5V81z
						 M92.3,70.6v3.2h2.8c1,0,1.4-0.7,1.4-1.6c0-0.8-0.5-1.7-1.5-1.7H92.3z"/>
					<path class="st0" d="M115.5,67.8l-5.5,6.4c1.9,2.1,4.1,4.5,5.9,6.6V81h-4.7l-3.8-4.5V81h-3.8V67.6h3.8V72
						c1.2-1.4,2.4-3,3.5-4.4h4.6V67.8z"/>
					<g>
						<path class="st0" d="M118.8,68.2c-0.9,0-1.6-0.7-1.6-1.6c0-0.9,0.7-1.6,1.6-1.6c0.9,0,1.6,0.7,1.6,1.6
							C120.3,67.5,119.6,68.2,118.8,68.2z M118.8,65.3c-0.7,0-1.3,0.6-1.3,1.3c0,0.8,0.6,1.3,1.3,1.3c0.7,0,1.3-0.6,1.3-1.3
							C120,65.8,119.5,65.3,118.8,65.3z M119.3,67.5h-0.2c0,0-0.1,0-0.1,0c0-0.1-0.1-0.1-0.1-0.2c-0.1-0.2-0.2-0.3-0.3-0.4
							c0,0-0.1-0.1-0.1-0.1h-0.1v0.7c0,0,0,0.1-0.1,0.1h-0.1c0,0-0.1,0-0.1-0.1v-1.6c0,0,0-0.1,0.1-0.1h0.4c0.4,0,0.6,0.2,0.6,0.5
							c0,0.2-0.1,0.5-0.5,0.5C119,66.7,119.2,67,119.3,67.5C119.4,67.4,119.4,67.5,119.3,67.5z M118.7,65.9h-0.2v0.6h0.2
							c0.3,0,0.4-0.1,0.4-0.3C119.1,66,118.9,65.9,118.7,65.9z"/>
					</g>
				</g>
			</g>
			<g>
				<polygon class="st0" points="57.6,0 33.8,13.8 46.3,21 57.6,14.5 				"/>
				<polygon class="st0" points="33.6,41.8 46.1,34.5 46.1,21.5 33.5,14.3 				"/>
				<polygon class="st0" points="70,34.7 70,21 69.7,21.2 69.4,21 69.4,34.4 58.1,27.8 58.1,14.5 57.6,14.5 57.6,27.8 46.1,34.5 
					46.3,35 57.9,28.3 69.4,35 				"/>
				<polygon class="st0" points="58.1,0 58.1,14.5 69.7,21.2 82.2,13.9 				"/>
				<polygon class="st0" points="58.1,41.5 58.1,55.9 82.2,42 82.2,27.6 				"/>
				<polygon class="st0" points="46.3,35 33.8,42.2 57.6,55.9 57.6,41.5 				"/>
			</g>
		</g>
	</g>
	<g>
		<g>
			<g>
				<path class="st0" d="M26.2,91.7c1.9,0,3.3,0.7,4.5,1.7l-1,1c-1-0.8-2.3-1.4-3.6-1.4c-3,0-5.2,2.5-5.2,5.4c0,2.9,2.3,5.4,5.2,5.4
					c1.6,0,2.6-0.7,3.6-1.4l1,1c-1.3,1.2-2.9,1.8-4.5,1.8c-3.7,0-6.7-3-6.7-6.7S22.5,91.7,26.2,91.7z"/>
				<path class="st0" d="M39.2,91.7c3.7,0,6.7,3,6.7,6.7s-3,6.7-6.7,6.7c-3.7,0-6.7-3-6.7-6.7S35.5,91.7,39.2,91.7z M39.2,103.9
					c3,0,5.4-2.4,5.4-5.4c0-3-2.4-5.4-5.4-5.4c-3,0-5.4,2.5-5.4,5.4C33.8,101.4,36.2,103.9,39.2,103.9z"/>
			</g>
			<g>
				<path class="st0" d="M58.1,91.7v10.5c0,0,0,0,0,0l-7.9-10.5h-1.4v13.4h1.4V94.5h0l7.9,10.7h1.4V91.7c0,0,0,0,0,0H58.1
					C58.1,91.7,58.1,91.7,58.1,91.7z"/>
				<path class="st0" d="M67.3,91.7v9.4c0,2-1.2,2.8-2.3,2.8c-0.8,0-1.5-0.6-1.8-1l-1.1,0.9c0.3,0.4,1.2,1.4,2.8,1.4
					c2.2,0,3.8-1.5,3.8-4.1v-9.4c0,0,0,0,0,0H67.3C67.3,91.7,67.3,91.7,67.3,91.7z"/>
				<path class="st0" d="M81.1,91.7v8.4c0,2.1-1.3,3.8-3.5,3.8c-2.2,0-3.5-1.7-3.5-3.8v-8.3c0,0,0,0,0,0h-1.4c0,0,0,0,0,0v8.4
					c0,2.8,2,5,4.9,5c3,0,5-2.2,5-5v-8.4c0,0,0,0,0,0H81.1C81.1,91.7,81.1,91.7,81.1,91.7z"/>
			</g>
		</g>
		<g>
			<path class="st0" d="M92.8,99.7c1.6-0.7,2.8-2.1,2.8-3.8c0-2.2-1.8-4-4.1-4c0,0-5.2-0.2-5.2,0v13.3h1.4v-5.3h3.6l2.7,5.3h1.8
				L92.8,99.7z M87.8,98.6v-5.4h3.6c1.4,0,2.7,1.2,2.7,2.6c0,1.5-1.3,2.7-2.7,2.7H87.8z"/>
		</g>
	</g>
</g>
</svg>
