<?xml version="1.0" encoding="utf-8"?>
<!-- Generator: Adobe Illustrator 16.0.0, SVG Export Plug-In . SVG Version: 6.00 Build 0)  -->
<!DOCTYPE svg PUBLIC "-//W3C//DTD SVG 1.1//EN" "http://www.w3.org/Graphics/SVG/1.1/DTD/svg11.dtd">
<svg version="1.1" id="Layer_1" xmlns="http://www.w3.org/2000/svg" xmlns:xlink="http://www.w3.org/1999/xlink" x="0px" y="0px"
	 width="50px" height="50px" viewBox="0 0 50 50" enable-background="new 0 0 50 50" xml:space="preserve">
<path fill="#99B8C7" d="M35.895,11.579H14.579c-1.356,0-2.459,1.103-2.459,2.459v16.397c0,1.355,1.103,2.459,2.459,2.459h7.378
	v2.869c0,0.228-0.183,0.41-0.41,0.41h-4.099c-0.228,0-0.41,0.183-0.41,0.41v0.819c0,0.228,0.183,0.41,0.41,0.41h15.576
	c0.228,0,0.41-0.183,0.41-0.41v-0.819c0-0.228-0.183-0.41-0.41-0.41h-4.099c-0.228,0-0.41-0.183-0.41-0.41v-2.869h7.379
	c1.355,0,2.459-1.104,2.459-2.459V14.039C38.354,12.682,37.25,11.579,35.895,11.579z M24.417,30.436c0-0.453,0.367-0.82,0.82-0.82
	s0.82,0.367,0.82,0.82s-0.367,0.819-0.82,0.819S24.417,30.889,24.417,30.436z M36.714,27.976H13.759V14.039
	c0-0.451,0.368-0.82,0.82-0.82h21.316c0.451,0,0.819,0.369,0.819,0.82V27.976z"/>
</svg>
