<?xml version="1.0" standalone="no"?>
<!DOCTYPE svg PUBLIC "-//W3C//DTD SVG 1.1//EN" "http://www.w3.org/Graphics/SVG/1.1/DTD/svg11.dtd">
<svg xmlns="http://www.w3.org/2000/svg">
<metadata>Copyright (C) 2019 by original authors @ fontello.com</metadata>
<defs>
<font id="fontello" horiz-adv-x="1000" >
<font-face font-family="fontello" font-weight="400" font-stretch="normal" units-per-em="1000" ascent="850" descent="-150" />
<missing-glyph horiz-adv-x="1000" />
<glyph glyph-name="variable" unicode="&#xe800;" d="M598 850c-138 0-250-110-250-245 0-59 21-113 56-155l-404-507 87-70 64 81 131-104 66 83-131 104 27 33 87-69 66 83-87 69 182 229c32-14 68-23 106-23 138 0 250 110 250 246 0 135-112 245-250 245z m0-401c-88 0-159 70-159 156s71 155 159 155c88 0 159-69 159-155 0-86-71-156-159-156z" horiz-adv-x="848" />

<glyph glyph-name="spin3" unicode="&#xe801;" d="M494 850c-266 0-483-210-494-472-1-19 13-20 13-20l84 0c16 0 19 10 19 18 10 199 176 358 378 358 107 0 205-45 273-118l-58-57c-11-12-11-27 5-31l247-50c21-5 46 11 37 44l-58 227c-2 9-16 22-29 13l-65-60c-89 91-214 148-352 148z m409-508c-16 0-19-10-19-18-10-199-176-358-377-358-108 0-205 45-274 118l59 57c10 12 10 27-5 31l-248 50c-21 5-46-11-37-44l58-227c2-9 16-22 30-13l64 60c89-91 214-148 353-148 265 0 482 210 493 473 1 18-13 19-13 19l-84 0z" horiz-adv-x="1000" />

<glyph glyph-name="search" unicode="&#xe802;" d="M643 386q0 103-73 176t-177 74-177-74-73-176 73-177 177-73 177 73 73 177z m286-465q0-29-22-50t-50-21q-30 0-50 21l-191 191q-100-69-223-69-80 0-153 31t-125 84-84 125-31 153 31 152 84 126 125 84 153 31 153-31 125-84 84-126 31-152q0-123-69-223l191-191q21-21 21-51z" horiz-adv-x="928.6" />

<glyph glyph-name="info-circled" unicode="&#xe803;" d="M571 82v89q0 8-5 13t-12 5h-54v286q0 8-5 13t-13 5h-178q-8 0-13-5t-5-13v-89q0-8 5-13t13-5h53v-179h-53q-8 0-13-5t-5-13v-89q0-8 5-13t13-5h250q7 0 12 5t5 13z m-71 500v89q0 8-5 13t-13 5h-107q-8 0-13-5t-5-13v-89q0-8 5-13t13-5h107q8 0 13 5t5 13z m357-232q0-117-57-215t-156-156-215-58-216 58-155 156-58 215 58 215 155 156 216 58 215-58 156-156 57-215z" horiz-adv-x="857.1" />

<glyph glyph-name="variable-with-rotator" unicode="&#xe804;" d="M311-45c-136 64-234 197-248 353h-63c21-256 236-458 498-458 9 0 18 1 27 1l-158 159-56-55z m187 895c-9 0-18-1-27-1l158-159 56 55c136-64 234-197 248-353h63c-21 256-236 458-498 458z m417-740c19 111-54 215-163 234-47 8-93-2-131-24l-353 392-67-61 56-62-101-91 57-64 101 91 24-26-68-61 58-64 67 61 159-177c-16-24-27-52-32-82-19-111 54-216 163-234 109-18 212 57 230 168z m-321 54c11 70 77 118 146 106 69-11 115-78 104-148-12-70-78-118-147-107-69 12-115 79-103 149z" horiz-adv-x="996" />

<glyph glyph-name="user" unicode="&#xe805;" d="M714 69q0-60-35-104t-84-44h-476q-49 0-84 44t-35 104q0 48 5 90t17 85 33 73 52 50 76 19q73-72 174-72t175 72q42 0 75-19t52-50 33-73 18-85 4-90z m-143 495q0-88-62-151t-152-63-151 63-63 151 63 152 151 63 152-63 62-152z" horiz-adv-x="714.3" />

<glyph glyph-name="group" unicode="&#xe806;" d="M331 350q-90-3-148-71h-75q-45 0-77 22t-31 66q0 197 69 197 4 0 25-11t54-24 66-12q38 0 75 13-3-21-3-37 0-78 45-143z m598-356q0-66-41-105t-108-39h-488q-68 0-108 39t-41 105q0 30 2 58t8 61 14 61 24 54 35 45 48 30 62 11q6 0 24-12t41-26 59-27 76-12 75 12 60 27 41 26 24 12q34 0 62-11t47-30 35-45 24-54 15-61 8-61 2-58z m-572 713q0-59-42-101t-101-42-101 42-42 101 42 101 101 42 101-42 42-101z m393-214q0-89-63-152t-151-62-152 62-63 152 63 151 152 63 151-63 63-151z m321-126q0-43-31-66t-77-22h-75q-57 68-147 71 45 65 45 143 0 16-3 37 37-13 74-13 33 0 67 12t54 24 24 11q69 0 69-197z m-71 340q0-59-42-101t-101-42-101 42-42 101 42 101 101 42 101-42 42-101z" horiz-adv-x="1071.4" />

<glyph glyph-name="dashboard" unicode="&#xe807;" d="M286 154v-108q0-22-16-37t-38-16h-178q-23 0-38 16t-16 37v108q0 22 16 38t38 15h178q23 0 38-15t16-38z m0 285v-107q0-22-16-38t-38-15h-178q-23 0-38 15t-16 38v107q0 23 16 38t38 16h178q23 0 38-16t16-38z m357-285v-108q0-22-16-37t-38-16h-178q-23 0-38 16t-16 37v108q0 22 16 38t38 15h178q23 0 38-15t16-38z m-357 571v-107q0-22-16-38t-38-16h-178q-23 0-38 16t-16 38v107q0 22 16 38t38 16h178q23 0 38-16t16-38z m357-286v-107q0-22-16-38t-38-15h-178q-23 0-38 15t-16 38v107q0 23 16 38t38 16h178q23 0 38-16t16-38z m357-285v-108q0-22-16-37t-38-16h-178q-22 0-38 16t-16 37v108q0 22 16 38t38 15h178q23 0 38-15t16-38z m-357 571v-107q0-22-16-38t-38-16h-178q-23 0-38 16t-16 38v107q0 22 16 38t38 16h178q23 0 38-16t16-38z m357-286v-107q0-22-16-38t-38-15h-178q-22 0-38 15t-16 38v107q0 23 16 38t38 16h178q23 0 38-16t16-38z m0 286v-107q0-22-16-38t-38-16h-178q-22 0-38 16t-16 38v107q0 22 16 38t38 16h178q23 0 38-16t16-38z" horiz-adv-x="1000" />

<glyph glyph-name="home" unicode="&#xe808;" d="M786 296v-267q0-15-11-25t-25-11h-214v214h-143v-214h-214q-15 0-25 11t-11 25v267q0 1 0 2t0 2l321 264 321-264q1-1 1-4z m124 39l-34-41q-5-5-12-6h-2q-7 0-12 3l-386 322-386-322q-7-4-13-3-7 1-12 6l-35 41q-4 6-3 13t6 12l401 334q18 15 42 15t43-15l136-113v108q0 8 5 13t13 5h107q8 0 13-5t5-13v-227l122-102q6-4 6-12t-4-13z" horiz-adv-x="928.6" />

<glyph glyph-name="lock" unicode="&#xe809;" d="M179 421h285v108q0 59-42 101t-101 41-101-41-41-101v-108z m464-53v-322q0-22-16-37t-38-16h-535q-23 0-38 16t-16 37v322q0 22 16 38t38 15h17v108q0 102 74 176t176 74 177-74 73-176v-108h18q23 0 38-15t16-38z" horiz-adv-x="642.9" />

<glyph glyph-name="new-events" unicode="&#xe80a;" d="M929 267v344q-95-51-171-51-46 0-81 18-56 27-103 42t-99 16q-97 0-225-71v-334q137 63 242 63 30 0 57-4t55-15 43-17 46-22l16-8q24-12 56-12 67 0 164 51z m-750 440q0-19-10-36t-26-25v-707q0-8-5-13t-13-5h-36q-7 0-12 5t-6 13v707q-16 9-25 25t-10 36q0 30 21 51t50 21 51-21 21-51z m821-36v-425q0-22-19-32-6-3-10-5-122-65-206-65-49 0-88 20l-16 7q-35 19-55 27t-51 16-63 8q-57 0-132-24t-127-57q-9-5-19-5-9 0-18 4-17 11-17 31v415q0 19 17 30 19 12 44 24t63 29 85 28 87 10q62 0 117-17t116-48q21-11 50-11 68 0 173 63 12 6 17 9 17 9 35-1 17-11 17-31z" horiz-adv-x="1000" />

<glyph glyph-name="warning" unicode="&#xe80b;" d="M571 83v106q0 8-5 13t-12 5h-108q-7 0-12-5t-5-13v-106q0-8 5-13t12-6h108q7 0 12 6t5 13z m-1 208l10 257q0 6-5 10-7 6-14 6h-122q-6 0-14-6-5-4-5-12l9-255q0-5 6-9t13-3h103q8 0 14 3t5 9z m-7 522l428-786q20-35-1-70-9-17-26-26t-35-10h-858q-18 0-35 10t-26 26q-21 35-1 70l429 786q9 17 26 27t36 10 36-10 27-27z" horiz-adv-x="1000" />

<glyph glyph-name="menu" unicode="&#xe80c;" d="M857 100v-71q0-15-10-25t-26-11h-785q-15 0-25 11t-11 25v71q0 15 11 25t25 11h785q15 0 26-11t10-25z m0 286v-72q0-14-10-25t-26-10h-785q-15 0-25 10t-11 25v72q0 14 11 25t25 10h785q15 0 26-10t10-25z m0 285v-71q0-14-10-25t-26-11h-785q-15 0-25 11t-11 25v71q0 15 11 26t25 10h785q15 0 26-10t10-26z" horiz-adv-x="857.1" />

<glyph glyph-name="webservice" unicode="&#xe80d;" d="M500 350q0 59-42 101t-101 42-101-42-42-101 42-101 101-42 101 42 42 101z m429-286q0 29-22 51t-50 21-50-21-21-51q0-29 21-50t50-21 51 21 21 50z m0 572q0 29-22 50t-50 21-50-21-21-50q0-30 21-51t50-21 51 21 21 51z m-215-235v-103q0-6-4-11t-8-6l-87-14q-6-19-18-42 19-27 50-64 4-6 4-11 0-7-4-11-12-17-46-50t-43-33q-7 0-12 4l-64 50q-21-11-43-17-6-60-13-87-4-13-17-13h-104q-6 0-11 4t-5 10l-13 85q-19 6-42 18l-66-50q-4-4-11-4-6 0-12 4-80 75-80 90 0 5 4 10 5 8 23 30t26 34q-13 24-20 46l-85 13q-5 1-9 5t-4 11v104q0 5 4 10t9 6l86 14q7 19 18 42-19 27-50 64-4 6-4 11 0 7 4 12 12 16 46 49t44 33q6 0 12-4l64-50q19 10 43 18 6 60 13 86 3 13 16 13h104q6 0 11-4t6-10l13-85q19-6 42-17l65 49q5 4 12 4 6 0 11-4 81-75 81-90 0-4-4-10-7-9-24-30t-25-34q13-27 19-46l85-12q6-2 9-6t4-11z m357-298v-78q0-9-83-17-6-15-16-29 28-63 28-77 0-2-2-4-68-40-69-40-5 0-26 27t-29 37q-11-1-17-1t-17 1q-7-11-29-37t-25-27q-1 0-69 40-3 2-3 4 0 14 29 77-10 14-17 29-83 8-83 17v78q0 9 83 18 7 16 17 29-29 63-29 77 0 2 3 4 2 1 19 11t33 19 17 9q4 0 25-26t29-38q12 1 17 1t17-1q28 40 51 63l4 1q2 0 69-39 2-2 2-4 0-14-28-77 9-13 16-29 83-9 83-18z m0 572v-78q0-9-83-18-6-15-16-29 28-63 28-77 0-2-2-4-68-39-69-39-5 0-26 26t-29 38q-11-1-17-1t-17 1q-7-12-29-38t-25-26q-1 0-69 39-3 2-3 4 0 14 29 77-10 14-17 29-83 9-83 18v78q0 9 83 17 7 16 17 29-29 63-29 77 0 2 3 4 2 1 19 11t33 19 17 9q4 0 25-26t29-37q12 1 17 1t17-1q28 39 51 62l4 1q2 0 69-39 2-2 2-4 0-14-28-77 9-13 16-29 83-8 83-17z" horiz-adv-x="1071.4" />

<glyph glyph-name="up-open" unicode="&#xe80e;" d="M564 280q16-16 16-41t-16-41q-38-38-78 0l-196 188-196-188q-40-38-78 0-16 16-16 41t16 41l234 224q16 16 40 16t40-16z" horiz-adv-x="580" />

<glyph glyph-name="custom-types" unicode="&#xe80f;" d="M768 350l77-75q17-16 11-39-7-23-29-29l-105-27 30-103q6-23-11-39-16-18-39-11l-104 30-27-105q-5-23-28-30-7-1-11-1-17 0-28 13l-75 77-76-77q-15-17-39-12-23 7-28 30l-27 105-104-30q-23-7-39 11-17 16-10 39l29 103-105 27q-22 6-29 29-6 23 11 39l77 75-77 75q-17 16-11 39 7 23 29 29l105 27-29 103q-7 23 10 40 16 17 39 10l104-29 27 104q5 23 28 29 23 7 39-11l76-77 75 77q16 17 39 11 23-6 28-29l27-104 104 29q23 7 39-10 17-17 11-40l-30-103 105-27q22-6 29-29 6-23-11-39z" horiz-adv-x="857.1" />

<glyph glyph-name="host" unicode="&#xe810;" d="M500-59l357 195v355l-357-130v-420z m-36 483l390 141-390 142-389-142z m465 140v-428q0-20-10-37t-28-26l-393-214q-15-9-34-9t-34 9l-393 214q-17 10-27 26t-10 37v428q0 23 13 41t34 26l393 143q12 5 24 5t25-5l393-143q21-8 34-26t13-41z" horiz-adv-x="1000" />

<glyph glyph-name="layer" unicode="&#xe811;" d="M357-61l214 107v176l-214-92v-191z m-36 254l226 96-226 97-225-97z m608-254l214 107v176l-214-92v-191z m-36 254l225 96-225 97-226-97z m-250 163l214 92v149l-214-92v-149z m-36 212l246 105-246 106-246-106z m607-289v-233q0-20-10-37t-29-26l-250-125q-14-8-32-8t-32 8l-250 125q-2 1-4 2-1-1-4-2l-250-125q-14-8-32-8t-31 8l-250 125q-19 9-29 26t-11 37v233q0 21 12 39t32 26l242 104v223q0 22 12 40t31 26l250 107q13 6 28 6t28-6l250-107q20-9 32-26t12-40v-223l242-104q20-8 32-26t11-39z" horiz-adv-x="1285.7" />

<glyph glyph-name="move" unicode="&#xe812;" d="M1000 350q0-14-11-25l-142-143q-11-11-26-11t-25 11-10 25v72h-215v-215h72q14 0 25-10t11-25-11-25l-143-143q-10-11-25-11t-25 11l-143 143q-11 10-11 25t11 25 25 10h72v215h-215v-72q0-14-10-25t-25-11-25 11l-143 143q-11 11-11 25t11 25l143 143q10 11 25 11t25-11 10-25v-72h215v215h-72q-14 0-25 10t-11 25 11 26l143 142q11 11 25 11t25-11l143-142q11-11 11-26t-11-25-25-10h-72v-215h215v72q0 14 10 25t25 11 26-11l142-143q11-10 11-25z" horiz-adv-x="1000" />

<glyph glyph-name="down-open" unicode="&#xe813;" d="M564 422l-234-224q-18-18-40-18t-40 18l-234 224q-16 16-16 41t16 41q38 38 78 0l196-188 196 188q40 38 78 0 16-16 16-41t-16-41z" horiz-adv-x="580" />

<glyph glyph-name="host-rotator" unicode="&#xe814;" d="M311-45c-136 64-234 197-248 353h-63c21-256 236-458 498-458 9 0 18 1 27 1l-158 159-56-55z m187 895c-9 0-18-1-27-1l158-159 56 55c136-64 234-197 248-353h63c-21 256-236 458-498 458z m28-740l227 124v226l-227-83v-267z m-23 307l248 90-248 90-247-90 247-90z m296 90v-273c0-8-3-16-7-23-4-7-10-13-17-17l-250-136c-7-4-14-6-22-6-7 0-15 2-21 6l-250 136c-7 4-13 10-18 17-4 7-6 15-6 23v273c0 9 3 18 8 25 6 8 13 14 22 17l250 91c5 2 10 3 15 3 6 0 11-1 16-3l250-91c9-3 16-9 21-17 6-7 9-16 9-25z" horiz-adv-x="996" />

<glyph glyph-name="ok" unicode="&#xe815;" d="M933 534q0-22-16-38l-404-404-76-76q-16-15-38-15t-38 15l-76 76-202 202q-15 16-15 38t15 38l76 76q16 16 38 16t38-16l164-165 366 367q16 16 38 16t38-16l76-76q16-15 16-38z" horiz-adv-x="1000" />

<glyph glyph-name="cancel" unicode="&#xe816;" d="M724 112q0-22-15-38l-76-76q-16-15-38-15t-38 15l-164 165-164-165q-16-15-38-15t-38 15l-76 76q-16 16-16 38t16 38l164 164-164 164q-16 16-16 38t16 38l76 76q16 16 38 16t38-16l164-164 164 164q16 16 38 16t38-16l76-76q15-15 15-38t-15-38l-164-164 164-164q15-15 15-38z" horiz-adv-x="785.7" />

<glyph glyph-name="cog" unicode="&#xe817;" d="M571 350q0 59-41 101t-101 42-101-42-42-101 42-101 101-42 101 42 41 101z m286 61v-124q0-7-4-13t-11-7l-104-16q-10-30-21-51 19-27 59-77 6-6 6-13t-5-13q-15-21-55-61t-53-39q-7 0-14 5l-77 60q-25-13-51-21-9-76-16-104-4-16-20-16h-124q-8 0-14 5t-6 12l-16 103q-27 9-50 21l-79-60q-6-5-14-5-8 0-14 6-70 64-92 94-4 5-4 13 0 6 5 12 8 12 28 37t30 40q-15 28-23 55l-102 15q-7 1-11 7t-5 13v124q0 7 5 13t10 7l104 16q8 25 22 51-23 32-60 77-6 7-6 14 0 5 5 12 15 20 55 60t53 40q7 0 15-5l77-60q24 13 50 21 9 76 17 104 3 16 20 16h124q7 0 13-5t7-12l15-103q28-9 51-20l79 59q5 5 13 5 7 0 14-5 72-67 92-95 4-5 4-12 0-7-4-13-9-12-29-37t-30-40q15-28 23-54l102-16q7-1 12-7t4-13z" horiz-adv-x="857.1" />

<glyph glyph-name="help-circled-alt" unicode="&#xe818;" d="M0 350q0 95 37 182t100 149 149 100 183 37q95 0 182-37t149-100 100-149 37-182q0-95-37-182t-100-150-149-100-182-37q-96 0-183 37t-149 100-100 150-37 182z m117 0q0-71 28-137t75-112 112-75 137-28 136 28 112 75 75 112 28 137q0 95-47 176t-128 128-176 47-177-47-128-128-47-176z m216 176l31-101q45 29 93 29 49 0 49-23 0-4-2-8t-3-5-6-5-7-5-8-4l-8-4-40-21q-22-12-28-25t-6-37v-37h117v16q0 7 0 10t3 6 6 5q1 1 11 5t17 8 19 11 18 13q19 17 29 37t11 55q0 49-42 83t-106 34q-83 0-148-37z m48-334q0-32 21-49t55-17q33 0 54 17t20 49-20 49-54 18q-35 0-55-18t-21-49z" horiz-adv-x="937.5" />

<glyph glyph-name="ldap" unicode="&#xe819;" d="M75 659h135v-482h234v-113h-369v595z m470 0h168c46 0 87-6 124-17s68-30 94-54c26-24 46-54 60-91 14-38 21-81 21-132 0-52-7-96-21-133-14-38-34-69-59-94-26-25-56-43-92-55-35-12-75-18-119-18h-176v594z m161-486c25 0 48 3 68 10 21 6 39 17 53 32 15 15 27 35 35 59 8 24 13 55 13 91 0 35-5 64-13 88-8 25-20 44-35 58s-32 24-53 30c-20 6-43 9-68 9h-26v-377h26z m688 33h-183l-36-141h-137l187 594h161l187-594h-143l-36 141z m-27 105l-15 54c-9 30-17 62-25 95-7 34-15 66-23 97h-4c-7-32-14-64-22-97-8-33-16-65-25-95l-14-54h128z m267 348h217c32 0 62-3 91-10 28-6 53-17 74-32s37-34 50-59c12-25 18-55 18-91 0-34-6-65-19-90s-29-46-50-62c-22-17-46-29-74-37-28-8-58-12-90-12h-82v-202h-135v595z m209-286c73 0 110 32 110 95 0 31-10 53-28 65s-46 19-82 19h-74v-179h74z" horiz-adv-x="2142" />

<glyph glyph-name="puppet" unicode="&#xe81a;" d="M650 499h-229l0 0-122 123v228h-299v-299h228l123-122 0 0v-158l0 0-123-122h-228v-299h299v228h0l122 123h228z m-550 252h99v-100h-99z m99-802h-99v100h99z" horiz-adv-x="649" />

<glyph glyph-name="ansible" unicode="&#xe81b;" d="M990 350a490 490 0 1 0-490 490 490 490 0 0 0 490-490m-482 191l127-313-192 151 65 162z m225-385l-195 469a32 32 0 0 1-30 21 33 33 0 0 1-31-21l-214-515h73l85 212 253-204a41 41 0 0 1 27-12 35 35 0 0 1 36 36 46 46 0 0 1-4 14z" horiz-adv-x="1000" />

<glyph glyph-name="azure" unicode="&#xe81c;" d="M7 705l403 55 0-389-403-3z m403-379l0-389-403 55v337z m48 441l535 78v-469l-535-5z m535-445l0-466-535 75 0 392z" horiz-adv-x="1000" />

<glyph glyph-name="jenkins" unicode="&#xe81d;" d="M894 797q-27-4-47-7t-43-10q-28-8-36-27a115 115 0 0 1-8-44v-536a308 308 0 0 0-30-136 296 296 0 0 0-81-104 379 379 0 0 0-118-62 453 453 0 0 0-139-21q-129 0-207 62t-79 169a156 156 0 0 0 36 106q36 41 99 41 59 0 95-35a117 117 0 0 0 35-86 126 126 0 0 0-30-81 472 472 0 0 0-70-69v-9a51 51 0 0 1 27-23 98 98 0 0 1 42-10q82 0 129 59t48 179v550a99 99 0 0 1-8 41q-7 17-36 29a265 265 0 0 1-50 15q-30 6-49 9v53h520z" horiz-adv-x="1000" />

<glyph glyph-name="openshift" unicode="&#xe81e;" d="M990 570a447 447 0 0 1-38 65l-158-57a294 294 0 0 0 47-62z m-695-174l-158-57a458 458 0 0 1 13-74l149 54a293 293 0 0 0-4 77m349 219a291 291 0 0 0 85-61l157 58a450 450 0 0 1-814-297l157 58a292 292 0 0 0 415 242m168-287a289 289 0 0 0-27-101 293 293 0 0 0-388-142 289 289 0 0 0-85 60l-157-57a449 449 0 0 1 773 72 445 445 0 0 1 41 225l-157-57z m38 192l-149-55a293 293 0 0 0 36-164l157 57a453 453 0 0 1-44 162m-690-252l-150-54a455 455 0 0 1 70-153l157 58a294 294 0 0 0-77 150m807 343c-5 8-10 16-15 24l-158-58a280 280 0 0 0 20-22z m-673-247a278 278 0 0 0 1 31l-158-57c1-10 2-20 4-30l153 56z m675 20l-157-57a287 287 0 0 0-14-68l171 62a451 451 0 0 1 0 63m-814-297a446 446 0 0 1 40-48l171 62a290 290 0 0 0-54 44z" horiz-adv-x="1000" />

<glyph glyph-name="saltstack" unicode="&#xe81f;" d="M428 836c14 10 26 8 41 0 42-25 84-50 126-73a21 21 0 0 1 16 1c42 23 82 47 123 72 14 8 26 10 40 0 63-36 126-73 189-109a34 34 0 0 0 20-32q-2-110 0-220a32 32 0 0 0-18-31c-37-21-74-43-112-64 27-22 27-22 27-56v-206a28 28 0 0 0-17-27c-130-75-260-150-389-225a43 43 0 0 0-50 0q-194 113-389 225a31 31 0 0 0-17 30v458a31 31 0 0 0 16 29z m-1-512a18 18 0 0 1-10 18l-356 204v-407a20 20 0 0 1 12-20l352-203z m396-204a19 19 0 0 1 12 19l-1 171-165-94c-23-14-39-5-39 22v175a101 101 0 0 1-1 15l-150-86a17 17 0 0 1-9-18v-408z m-385 260a15 15 0 0 1 19 0c28 17 57 33 86 50 21 11 41 24 64 37-9 5-15 9-22 13-49 28-97 56-147 85-18 11-18 31 0 41 26 15 51 30 77 45a17 17 0 0 1 11 19 55 55 0 0 0 0 11c-3 22 1 40 24 50 1 0 2 1 3 3-33 18-65 37-97 56a18 18 0 0 1-21 0l-351-204z m476 323c-3 3-4 3-5 3l-147 86a19 19 0 0 1-15-1c-44-25-88-50-131-75-6-3-12-8-20-12a16 16 0 0 0 5-3l147-85a24 24 0 0 1 15 1c22 11 43 24 64 36 28 16 56 33 87 50z m16-227a18 18 0 0 1 7 15c1 53 0 106 0 160 0 4-1 7-1 10h-4c-49-28-99-56-148-85a18 18 0 0 1-6-15v-172z m-357 188v-114a17 17 0 0 1 10-17c25-15 51-30 78-45a27 27 0 0 0 15-25v-34a13 13 0 0 1 3-10c17-11 34-20 53-31a68 68 0 0 1 1 8v168a18 18 0 0 1-8 12z m104-296v-97c46 26 90 51 133 77a18 18 0 0 1-2 4c-4-1-7-2-10-3a281 281 0 0 1-26-16 29 29 0 0 0-34 0c-20 12-40 23-61 35z m-184 218c12-8 22-14 33-20v40a321 321 0 0 0-33-20z" horiz-adv-x="1000" />

<glyph glyph-name="chef" unicode="&#xe820;" d="M788 280h-69a229 229 0 1 0 0 140h69a295 295 0 1 1 0-140z m-296-60a130 130 0 0 0-78 32l-50-50a200 200 0 0 1 129-53z m0 261v71a202 202 0 0 1-193-202 200 200 0 0 1 14-74l65 29a130 130 0 0 0-8 45 131 131 0 0 0 122 131z m198-61a204 204 0 0 1-108 115l-26-67a132 132 0 0 0 56-49z m0-139h-79a132 132 0 0 0-55-49l26-67a204 204 0 0 1 108 116z m-586-51c-2 5-3 9-4 14l0 1c-2 4-3 9-4 13l0 3c-1 4-2 8-3 11 0 2 0 4 0 6l0 1c-1 2-1 5-2 8s-1 5-1 8a413 413 0 0 0-4 47h-67a484 484 0 0 1 4-50l0-1c0-6 1-11 2-16l0-4c1-4 2-9 3-13 0-2 0-4 1-5l0-2c1-3 1-6 2-10s1-5 2-8l0-1 2-7c1-3 2-7 3-10l1-3 0-1a485 485 0 0 1 17-47l61 27c-6 12-10 25-14 39z m397-295a412 412 0 0 0-288 116l-46-47a481 481 0 0 1 810 276h-67a418 418 0 0 0-409-345z m0 830a411 411 0 0 0 241-78l40 54a481 481 0 0 1-726-209l61-24a418 418 0 0 0 384 257z m476-345a475 475 0 0 1-63 178l-57-35a410 410 0 0 0 53-143z m-328 288l-24-61a325 325 0 0 0 190-227h68a390 390 0 0 1-234 288z m-157-36v66a392 392 0 0 1-350-240l62-24a325 325 0 0 0 288 198z m-143-679l25 61a321 321 0 0 0-195 288h-66a387 387 0 0 1 236-349z m534 288h-68a323 323 0 0 0-306-253v-66a391 391 0 0 1 374 319z" horiz-adv-x="1000" />

<glyph glyph-name="aws" unicode="&#xe821;" d="M278-69l-123 44v180l123-41z m22 0l123 44v180l-123-41z m-8 197l115 39-115 37-125-35z m-161 237l-123 42v-180l123-44z m23-182l123 44v180l-123-42z m-8 196l115 39-116 37-124-35z m272-14l-123 42v-180l123-44z m22-182l123 44v180l-123-42z m-8 196l115 39-115 37-124-35z m132 238l-123 41v-180l123-44z m23-182l122 44v179l-122-41z m-9 196l115 39-115 37-124-35z m273-14l-123 41v-180l123-44z m22-182l123 44v179l-123-41z m-8 196l115 39-115 37-125-35z" horiz-adv-x="1000" />

<glyph glyph-name="cyberark" unicode="&#xe822;" d="M293 475l-212 123 416 244v-248z m629-124l-214-125-204-120 0-248 418 245z m-4 248l-415 243v-248l204-119z m-625-374l-211-124 415-243 0 248z m-3 244l-212 124 0-486 212 124z m417-240h0z m-204 365h-6v-244h6z m207-104h-6v-275h6z m0-261l-208 124-4-6 209-124z m-208 118l-4 6-209-123 4-6z" horiz-adv-x="1000" />

<glyph glyph-name="cloudfoundry" unicode="&#xe823;" d="M229 256s17 65-58 149l-2 3a207 207 0 0 0 158 340h5a207 207 0 0 0 159-340l-3-3a198 198 0 0 1-58-149 302 302 0 0 1 204 284 305 305 0 0 1-287 303h-6l-11 0-12 0h-6a305 305 0 0 1-287-303 302 302 0 0 1 203-284m392-240a96 96 0 0 0 18 5 121 121 0 0 0 22 3s0 2-1 6a55 55 0 0 1-4 12c-1 3-1 5-2 7s-2 4-3 5l-3 6a220 220 0 0 0-21 5 171 171 0 0 0-20 6 82 82 0 0 0-27 17 20 20 0 0 0-8 17 15 15 0 0 0 4 7 24 24 0 0 0 8 6l-7 4-6 3-9 4c-5 3-10 6-15 7l-7 3a124 124 0 0 0-17-1 176 176 0 0 0-19 0 180 180 0 0 0-34 6 82 82 0 0 0-14 5 73 73 0 0 0-11 5c-5 4-9 8-9 13l-8 1-24 3c0-1 0-2-1-4l-1-9a33 33 0 0 1 23-39c41-12 72-32 81-56 18-49-58-96-174-96s-192 48-174 96c9 24 38 43 78 55a35 35 0 0 1 24 41l-2 13-16-2c-6-1-13-2-18-3l-9-2a15 15 0 0 0-8-12 75 75 0 0 0-10-6 120 120 0 0 0-13-5 151 151 0 0 0-17-4 149 149 0 0 0-17-2 182 182 0 0 0-36 0l-2-1-6-2-15-7c-5-3-11-6-14-8l-5-3-2-1a20 20 0 0 0 13-13c2-6 0-11-5-17a73 73 0 0 0-11-9 104 104 0 0 0-16-9 169 169 0 0 0-41-13 22 22 0 0 1-2-6l-5-12c0-4-1-9-2-12a21 21 0 0 1 0-6 117 117 0 0 0 41-7 51 51 0 0 0 26-18 28 28 0 0 0 2-27 63 63 0 0 0-23-29l2-2 6-4c5-4 11-9 18-13l22-12a87 87 0 0 1 8-4l3-1a193 193 0 0 0 56 13 166 166 0 0 0 28 1 154 154 0 0 0 27-3 157 157 0 0 0 25-8 131 131 0 0 0 21-12 68 68 0 0 0 27-33l16-1c10 0 23-1 36 0s26 1 36 2l16 1a50 50 0 0 0 8 19 60 60 0 0 0 7 8 75 75 0 0 0 8 7 82 82 0 0 0 19 12 113 113 0 0 0 24 9 201 201 0 0 0 26 4 241 241 0 0 0 28 0 200 200 0 0 0 57-12l10 5a181 181 0 0 1 19 12c7 5 13 9 17 13l7 6a75 75 0 0 0-25 29 31 31 0 0 0-4 14 20 20 0 0 0 4 12 43 43 0 0 0 22 18m-443 536a123 123 0 0 1 47-97c37-30 67-91 69-157 2-73-3-158-6-202-39-5-67-19-67-34 0-20 49-44 110-44s109 23 109 44c0 15-28 28-67 34-3 43-8 128-6 202 1 66 32 127 68 157a123 123 0 0 1 48 96c0 73-69 131-152 131s-153-58-153-130" horiz-adv-x="659" />

<glyph glyph-name="kubernetes" unicode="&#xe824;" d="M410 348a19 19 0 0 1-2 26l-83 74a225 225 0 0 1-32-137l109 32a14 14 0 0 1 8 5z m139 81a19 19 0 0 1 24-4l92 65a213 213 0 0 1-126 61l6-114a15 15 0 0 1 4-8z m-132-152l-112-18a221 221 0 0 1 88-110l43 103a19 19 0 0 1 1 10 19 19 0 0 1-20 15z m43 144a19 19 0 0 1 18 19l7 112-23-5a214 214 0 0 1-104-57l93-66a16 16 0 0 1 9-3z m239 27l-85-76a16 16 0 0 1-4-8 19 19 0 0 1 13-22l108-31a229 229 0 0 1-32 137z m-180-218a18 18 0 0 1-22-5l-56-100a238 238 0 0 1 71-11 229 229 0 0 1 49 5c7 3 14 4 20 6l-54 97a29 29 0 0 1-8 8z m499 15l-87 379a68 68 0 0 1-37 46l-353 168a69 69 0 0 1-28 6 84 84 0 0 1-30-5l-354-169a67 67 0 0 1-37-46l-87-379a70 70 0 0 1 13-58l245-304a66 66 0 0 1 53-25h392a67 67 0 0 1 52 25l245 304a65 65 0 0 1 13 58z m-154-10a14 14 0 0 0-5 1 3 3 0 0 1-2 1c-2 0-3 1-4 1a64 64 0 0 0-13 4c-2 1-4 3-7 3h0a172 172 0 0 1-37 11h-1a18 18 0 0 1-9-3c-1 0-1-1-2-1l-8 1a276 276 0 0 0-122-153l4-9c0 0-1 0-1-1a20 20 0 0 1-1-11 160 160 0 0 1 19-33v0c1-2 2-4 4-6a62 62 0 0 0 7-11 14 14 0 0 0 3-3c0-1 0-1 0-2a25 25 0 0 0 2-17 21 21 0 0 0-11-13 19 19 0 0 0-9-2 24 24 0 0 0-21 13 2 2 0 0 0 0 2c-1 1-2 2-2 3a81 81 0 0 0-5 13l-2 6v1a233 233 0 0 1-14 35 13 13 0 0 1-9 6c-1 1-1 1-2 1l-4 8a286 286 0 0 0-36-11 253 253 0 0 0-61-7 273 273 0 0 0-98 18l-5-9c-1-1-1-1-2-1a18 18 0 0 1-9-6 160 160 0 0 1-14-35l-3-7c-1-4-2-7-4-12a13 13 0 0 1-2-4 3 3 0 0 1-1-1 25 25 0 0 0-21-13 18 18 0 0 0-8 2 22 22 0 0 0-9 30 2 2 0 0 1 1 1 14 14 0 0 0 2 4c3 4 5 8 8 11s2 3 4 5v1a199 199 0 0 1 18 33 14 14 0 0 1-2 11c0 0 0 0 0 1l4 9a269 269 0 0 0-30 20 276 276 0 0 0-92 131l-10-1c0 0 0 1-1 1a16 16 0 0 1-9 3h-1a173 173 0 0 1-37-11h-1c-2-1-4-2-6-3a73 73 0 0 0-12-5c-2 0-3 0-5 0s0-1-1-1a16 16 0 0 0-5-1 22 22 0 0 0-22 17 23 23 0 0 0 18 26 3 3 0 0 0 2 1c2 0 3 1 4 1a101 101 0 0 0 14 1 22 22 0 0 0 7 1h0a173 173 0 0 1 38 6 16 16 0 0 1 8 8c0 0 1 0 1 1l9 3a273 273 0 0 0 39 185 26 26 0 0 0 3 5l-7 6v2a13 13 0 0 1-3 11 210 210 0 0 1-32 22 36 36 0 0 1-6 3 89 89 0 0 0-12 7c-1 1-2 2-3 3s-1 1-2 1a23 23 0 0 0-5 31 20 20 0 0 0 16 8 24 24 0 0 0 16-6c0-1 0-1 1-1s3-2 4-3a126 126 0 0 0 9-10 30 30 0 0 0 5-5 185 185 0 0 1 28-26 11 11 0 0 1 6-2c1 0 3 1 4 1h1l7-5a269 269 0 0 0 139 78 379 379 0 0 0 38 6l0 9 2 1a15 15 0 0 1 5 10 178 178 0 0 1-2 37v1c-1 3-1 5-1 7a39 39 0 0 0-2 13v6a23 23 0 0 0 22 23 23 23 0 0 0 21-23v-7c0-4-1-9-2-13a27 27 0 0 1-1-7v0a250 250 0 0 1-2-38 14 14 0 0 1 5-9l2-2 1-9a279 279 0 0 0 146-58 344 344 0 0 0 28-26l9 5h1a9 9 0 0 1 4-1 11 11 0 0 1 7 3 173 173 0 0 1 28 25 23 23 0 0 1 4 5 125 125 0 0 0 10 9c1 1 2 2 3 3l1 2a26 26 0 0 0 16 5 20 20 0 0 0 16-8 23 23 0 0 0-5-31c0-1-1-1-1-1a31 31 0 0 0-4-3 104 104 0 0 0-12-7c-2-2-4-2-6-4a195 195 0 0 1-32-22 16 16 0 0 1-3-11v-1l-7-6a290 290 0 0 0 39-92 277 277 0 0 0 5-98l9-3c0 0 1 0 1-1a14 14 0 0 1 7-8 180 180 0 0 1 38-6h1a24 24 0 0 1 7-1 87 87 0 0 0 13-1c1 0 3-1 4-1s1-1 1-1h1a27 27 0 0 0 21-23 24 24 0 0 0-23-16z m-268 41a19 19 0 0 1-10-22l44-105a223 223 0 0 1 68 68 143 143 0 0 1 20 42l-112 19a22 22 0 0 1-10-2z" horiz-adv-x="1020" />

<glyph glyph-name="pivotalcloudfoundry" unicode="&#xe825;" d="M1359 18v19c-1 4 0 9 0 14 0 9-1 19-2 29a477 477 0 0 1-23 107 505 505 0 0 1-200 262 7 7 0 0 0-4 6 353 353 0 0 1-6 37 444 444 0 0 1-179 275 436 436 0 0 1-227 82 123 123 0 0 0-15 1h-41a65 65 0 0 0-11-1 284 284 0 0 1-37-3 449 449 0 0 1-189-76 456 456 0 0 1-86-79 452 452 0 0 1-97-204 409 409 0 0 1-7-82c0-6 0-13 0-20a48 48 0 0 1 0-7c0-6 0-8-6-10a312 312 0 0 1-29-15 408 408 0 0 1-78-59 384 384 0 0 1-36-40 397 397 0 0 1-79-166 230 230 0 0 1-6-45 142 142 0 0 0-1-17v-41a4 4 0 0 0 0-3 400 400 0 0 1 6-48 403 403 0 0 1 20-72 16 16 0 0 1 16-11q54 0 109 0a16 16 0 0 1 15 13 20 20 0 0 1-2 15 263 263 0 0 0-24 192 267 267 0 0 0 269 200c-2-5-6-11-8-17a502 502 0 0 1-51-269 517 517 0 0 1 25-122 16 16 0 0 1 18-12h103a16 16 0 0 1 16 24 374 374 0 0 0 25 354c1 1 1 2 3 2a267 267 0 0 0 92-356 15 15 0 0 1 15-24h108a16 16 0 0 1 17 11 397 397 0 0 1 21 200 393 393 0 0 1-70 174 397 397 0 0 1-92 93c0 0 1 1 2 2a374 374 0 0 0 368 42h0c-1-8-2-16-3-24a314 314 0 0 0-59-137 19 19 0 0 1-3-7 17 17 0 0 1 17-22c37 0 75 0 112 0a19 19 0 0 1 18 11 453 453 0 0 1 36 94c0 1 0 2 1 2s2-1 3-2a374 374 0 0 0 105-247 255 255 0 0 0 0-26 269 269 0 0 0-2-31 326 326 0 0 0-11-54 360 360 0 0 0-22-59 15 15 0 0 1 14-20c36 0 72 0 108 0a15 15 0 0 1 16 11 513 513 0 0 1 27 143c1 5 0 9 1 13z m-386 504c-4 1-8 2-12 3a513 513 0 0 1-101 11c-13 0-27 0-40-2s-26-2-38-3a493 493 0 0 1-104-27 513 513 0 0 1-126-67 525 525 0 0 1-45-38 46 46 0 0 1-8-8l0 0a14 14 0 0 1-3 2 402 402 0 0 1-82 11c-10 0-20 0-29 0-4 0-7-1-11 0s-4 1-4 4 0 4 0 5a205 205 0 0 0 2 30 317 317 0 0 0 33 105 315 315 0 0 0 187 155 308 308 0 0 0 78 13 298 298 0 0 0 60-2 316 316 0 0 0 192-105 319 319 0 0 0 49-75 119 119 0 0 0 6-13 14 14 0 0 1-4 1z m255-480a62 62 0 0 0 0-16 26 26 0 0 0 0-11z m131-5a50 50 0 0 0 0 14 50 50 0 0 0 0-14z m0-32a44 44 0 0 0 0 13 41 41 0 0 0 0-13z" horiz-adv-x="1359" />

<glyph glyph-name="policy" unicode="&#xe826;" d="M635 290l170 166-235 34-106 213-105-213-236-34 171-166-41-235 211 111 211-111z m294 199q0-12-15-27l-202-197 48-279q0-4 0-12 0-28-23-28-10 0-22 7l-251 132-250-132q-12-7-23-7-11 0-17 9t-6 19q0 4 1 12l48 279-203 197q-14 15-14 27 0 21 31 26l280 40 126 254q11 23 27 23t28-23l125-254 280-40q32-5 32-26z" horiz-adv-x="928.6" />

<glyph glyph-name="terraform" unicode="&#xe827;" d="M607 200l273 158v316l-273-158m-304 158l274-158v-316l-274 158m-303 176l273-157v315l-273 158m303-842l274-158v316l-274 158" horiz-adv-x="880" />

<glyph glyph-name="vault" unicode="&#xe828;" d="M0 850l498-1000 502 1000z m558-201h58v-57h-58z m-116-232h-58v58h58z m0 87h-58v58h58z m0 87h-58v58h58z m88-261h-59v58h59z m0 87h-59v58h59z m0 87h-59v58h59z m0 88h-59v57h59z m28-29h58v-58h-58z m0-145v57h58v-58z" horiz-adv-x="1000" />

<glyph glyph-name="circle" unicode="&#xf111;" d="M857 350q0-117-57-215t-156-156-215-58-216 58-155 156-58 215 58 215 155 156 216 58 215-58 156-156 57-215z" horiz-adv-x="857.1" />
</font>
</defs>
</svg>
